<mxfile host="app.diagrams.net" modified="2023-08-03T03:04:28.891Z" agent="Mozilla/5.0 (Windows NT 10.0; Win64; x64) AppleWebKit/537.36 (KHTML, like Gecko) Chrome/115.0.0.0 Safari/537.36" etag="b4kvEpmR-rdjmJA6ssTY" version="21.6.6" type="device">
  <diagram name="PÃ¡gina-1" id="QuKAic8C2s1t0ebavvh7">
    <mxGraphModel dx="398" dy="211" grid="1" gridSize="5" guides="1" tooltips="1" connect="1" arrows="1" fold="1" page="1" pageScale="1" pageWidth="1169" pageHeight="827" math="0" shadow="0">
      <root>
        <mxCell id="0" />
        <mxCell id="1" parent="0" />
        <mxCell id="ZD1-CbPlXlFvgOCCGjHF-1" value="DEPARTMENT" style="rounded=0;whiteSpace=wrap;html=1;" vertex="1" parent="1">
          <mxGeometry x="360" y="282" width="90" height="40" as="geometry" />
        </mxCell>
        <mxCell id="ZD1-CbPlXlFvgOCCGjHF-2" value="works" style="shape=rhombus;perimeter=rhombusPerimeter;whiteSpace=wrap;html=1;align=center;fillColor=none;gradientColor=none;rounded=0;" vertex="1" parent="1">
          <mxGeometry x="500" y="270" width="120" height="65" as="geometry" />
        </mxCell>
        <mxCell id="ZD1-CbPlXlFvgOCCGjHF-3" value="" style="endArrow=none;html=1;rounded=0;entryX=0;entryY=0.5;entryDx=0;entryDy=0;" edge="1" parent="1" target="ZD1-CbPlXlFvgOCCGjHF-2">
          <mxGeometry relative="1" as="geometry">
            <mxPoint x="450" y="302" as="sourcePoint" />
            <mxPoint x="610" y="302" as="targetPoint" />
          </mxGeometry>
        </mxCell>
        <mxCell id="ZD1-CbPlXlFvgOCCGjHF-4" value="" style="endArrow=none;html=1;rounded=0;entryX=0;entryY=0.5;entryDx=0;entryDy=0;exitX=1;exitY=0.5;exitDx=0;exitDy=0;" edge="1" parent="1" source="ZD1-CbPlXlFvgOCCGjHF-2" target="ZD1-CbPlXlFvgOCCGjHF-5">
          <mxGeometry relative="1" as="geometry">
            <mxPoint x="650" y="302" as="sourcePoint" />
            <mxPoint x="680" y="302.5" as="targetPoint" />
          </mxGeometry>
        </mxCell>
        <mxCell id="ZD1-CbPlXlFvgOCCGjHF-5" value="EMPLEOYEE" style="rounded=0;whiteSpace=wrap;html=1;gradientColor=none;fillColor=none;" vertex="1" parent="1">
          <mxGeometry x="670" y="282.5" width="90" height="40" as="geometry" />
        </mxCell>
        <mxCell id="ZD1-CbPlXlFvgOCCGjHF-11" value="" style="ellipse;whiteSpace=wrap;html=1;aspect=fixed;rounded=0;" vertex="1" parent="1">
          <mxGeometry x="320" y="297.5" width="10" height="10" as="geometry" />
        </mxCell>
        <mxCell id="ZD1-CbPlXlFvgOCCGjHF-18" value="" style="endArrow=none;html=1;rounded=0;entryX=1;entryY=0.5;entryDx=0;entryDy=0;exitX=0;exitY=0.5;exitDx=0;exitDy=0;" edge="1" parent="1" source="ZD1-CbPlXlFvgOCCGjHF-1" target="ZD1-CbPlXlFvgOCCGjHF-11">
          <mxGeometry width="50" height="50" relative="1" as="geometry">
            <mxPoint x="350" y="302" as="sourcePoint" />
            <mxPoint x="340" y="277" as="targetPoint" />
            <Array as="points" />
          </mxGeometry>
        </mxCell>
        <mxCell id="ZD1-CbPlXlFvgOCCGjHF-25" value="annual_budget" style="text;html=1;strokeColor=none;fillColor=none;align=center;verticalAlign=middle;whiteSpace=wrap;rounded=0;" vertex="1" parent="1">
          <mxGeometry x="255" y="297.5" width="40" height="10" as="geometry" />
        </mxCell>
        <mxCell id="ZD1-CbPlXlFvgOCCGjHF-28" value="(1,1)" style="text;html=1;align=center;verticalAlign=middle;resizable=0;points=[];autosize=1;strokeColor=none;fillColor=none;rounded=0;" vertex="1" parent="1">
          <mxGeometry x="622.5" y="297.5" width="45" height="30" as="geometry" />
        </mxCell>
        <mxCell id="ZD1-CbPlXlFvgOCCGjHF-30" value="is located" style="shape=rhombus;perimeter=rhombusPerimeter;whiteSpace=wrap;html=1;align=center;fillColor=none;gradientColor=none;rounded=0;" vertex="1" parent="1">
          <mxGeometry x="345" y="370" width="120" height="65" as="geometry" />
        </mxCell>
        <mxCell id="ZD1-CbPlXlFvgOCCGjHF-31" value="" style="endArrow=none;html=1;rounded=0;entryX=0.5;entryY=1;entryDx=0;entryDy=0;exitX=0.5;exitY=0;exitDx=0;exitDy=0;" edge="1" parent="1" source="ZD1-CbPlXlFvgOCCGjHF-30" target="ZD1-CbPlXlFvgOCCGjHF-1">
          <mxGeometry width="50" height="50" relative="1" as="geometry">
            <mxPoint x="270" y="400" as="sourcePoint" />
            <mxPoint x="320" y="350" as="targetPoint" />
          </mxGeometry>
        </mxCell>
        <mxCell id="ZD1-CbPlXlFvgOCCGjHF-32" value="" style="ellipse;whiteSpace=wrap;html=1;aspect=fixed;rounded=0;fillColor=#000000;" vertex="1" parent="1">
          <mxGeometry x="377" y="240" width="10" height="10" as="geometry" />
        </mxCell>
        <mxCell id="ZD1-CbPlXlFvgOCCGjHF-33" value="" style="endArrow=none;html=1;rounded=0;entryX=0.5;entryY=1;entryDx=0;entryDy=0;exitX=0.25;exitY=0;exitDx=0;exitDy=0;" edge="1" parent="1" target="ZD1-CbPlXlFvgOCCGjHF-32" source="ZD1-CbPlXlFvgOCCGjHF-1">
          <mxGeometry width="50" height="50" relative="1" as="geometry">
            <mxPoint x="400" y="270" as="sourcePoint" />
            <mxPoint x="400" y="239.5" as="targetPoint" />
            <Array as="points" />
          </mxGeometry>
        </mxCell>
        <mxCell id="ZD1-CbPlXlFvgOCCGjHF-34" value="" style="ellipse;whiteSpace=wrap;html=1;aspect=fixed;rounded=0;fillColor=#000000;" vertex="1" parent="1">
          <mxGeometry x="422" y="240" width="10" height="10" as="geometry" />
        </mxCell>
        <mxCell id="ZD1-CbPlXlFvgOCCGjHF-35" value="" style="endArrow=none;html=1;rounded=0;entryX=0.5;entryY=1;entryDx=0;entryDy=0;exitX=0.75;exitY=0;exitDx=0;exitDy=0;" edge="1" parent="1" target="ZD1-CbPlXlFvgOCCGjHF-34" source="ZD1-CbPlXlFvgOCCGjHF-1">
          <mxGeometry width="50" height="50" relative="1" as="geometry">
            <mxPoint x="450" y="264.5" as="sourcePoint" />
            <mxPoint x="430" y="239.5" as="targetPoint" />
            <Array as="points" />
          </mxGeometry>
        </mxCell>
        <mxCell id="ZD1-CbPlXlFvgOCCGjHF-36" value="DEPARTMENT" style="rounded=0;whiteSpace=wrap;html=1;" vertex="1" parent="1">
          <mxGeometry x="360" y="480" width="90" height="40" as="geometry" />
        </mxCell>
        <mxCell id="ZD1-CbPlXlFvgOCCGjHF-37" value="" style="endArrow=none;html=1;rounded=0;entryX=0.5;entryY=1;entryDx=0;entryDy=0;exitX=0.5;exitY=0;exitDx=0;exitDy=0;" edge="1" parent="1" source="ZD1-CbPlXlFvgOCCGjHF-36" target="ZD1-CbPlXlFvgOCCGjHF-30">
          <mxGeometry width="50" height="50" relative="1" as="geometry">
            <mxPoint x="320" y="510" as="sourcePoint" />
            <mxPoint x="370" y="460" as="targetPoint" />
          </mxGeometry>
        </mxCell>
        <mxCell id="ZD1-CbPlXlFvgOCCGjHF-38" value="" style="ellipse;whiteSpace=wrap;html=1;aspect=fixed;rounded=0;fillColor=none;" vertex="1" parent="1">
          <mxGeometry x="320" y="505" width="10" height="10" as="geometry" />
        </mxCell>
        <mxCell id="ZD1-CbPlXlFvgOCCGjHF-39" value="" style="endArrow=none;html=1;rounded=0;entryX=1;entryY=0.5;entryDx=0;entryDy=0;exitX=0;exitY=0.5;exitDx=0;exitDy=0;" edge="1" parent="1" target="ZD1-CbPlXlFvgOCCGjHF-38" source="ZD1-CbPlXlFvgOCCGjHF-48">
          <mxGeometry width="50" height="50" relative="1" as="geometry">
            <mxPoint x="360" y="504.5" as="sourcePoint" />
            <mxPoint x="340" y="479.5" as="targetPoint" />
            <Array as="points" />
          </mxGeometry>
        </mxCell>
        <mxCell id="ZD1-CbPlXlFvgOCCGjHF-40" value="number" style="text;html=1;strokeColor=none;fillColor=none;align=center;verticalAlign=middle;whiteSpace=wrap;rounded=0;" vertex="1" parent="1">
          <mxGeometry x="275" y="505" width="40" height="10" as="geometry" />
        </mxCell>
        <mxCell id="ZD1-CbPlXlFvgOCCGjHF-41" value="" style="ellipse;whiteSpace=wrap;html=1;aspect=fixed;rounded=0;fillColor=none;" vertex="1" parent="1">
          <mxGeometry x="320" y="485" width="10" height="10" as="geometry" />
        </mxCell>
        <mxCell id="ZD1-CbPlXlFvgOCCGjHF-42" value="" style="endArrow=none;html=1;rounded=0;entryX=1;entryY=0.5;entryDx=0;entryDy=0;exitX=0;exitY=0.5;exitDx=0;exitDy=0;" edge="1" parent="1" target="ZD1-CbPlXlFvgOCCGjHF-41" source="ZD1-CbPlXlFvgOCCGjHF-45">
          <mxGeometry width="50" height="50" relative="1" as="geometry">
            <mxPoint x="360" y="484.5" as="sourcePoint" />
            <mxPoint x="340" y="459.5" as="targetPoint" />
            <Array as="points" />
          </mxGeometry>
        </mxCell>
        <mxCell id="ZD1-CbPlXlFvgOCCGjHF-43" value="city" style="text;html=1;strokeColor=none;fillColor=none;align=center;verticalAlign=middle;whiteSpace=wrap;rounded=0;" vertex="1" parent="1">
          <mxGeometry x="285" y="485" width="40" height="10" as="geometry" />
        </mxCell>
        <mxCell id="ZD1-CbPlXlFvgOCCGjHF-44" value="" style="ellipse;whiteSpace=wrap;html=1;aspect=fixed;rounded=0;fillColor=#000000;" vertex="1" parent="1">
          <mxGeometry x="335" y="450" width="10" height="10" as="geometry" />
        </mxCell>
        <mxCell id="ZD1-CbPlXlFvgOCCGjHF-47" value="" style="endArrow=none;html=1;rounded=0;entryX=1;entryY=0.5;entryDx=0;entryDy=0;exitX=0;exitY=0.25;exitDx=0;exitDy=0;" edge="1" parent="1" source="ZD1-CbPlXlFvgOCCGjHF-36" target="ZD1-CbPlXlFvgOCCGjHF-45">
          <mxGeometry width="50" height="50" relative="1" as="geometry">
            <mxPoint x="360" y="490" as="sourcePoint" />
            <mxPoint x="330" y="490" as="targetPoint" />
            <Array as="points" />
          </mxGeometry>
        </mxCell>
        <mxCell id="ZD1-CbPlXlFvgOCCGjHF-45" value="" style="ellipse;whiteSpace=wrap;html=1;aspect=fixed;rounded=0;fillColor=#000000;" vertex="1" parent="1">
          <mxGeometry x="337.5" y="487.5" width="5" height="5" as="geometry" />
        </mxCell>
        <mxCell id="ZD1-CbPlXlFvgOCCGjHF-49" value="" style="endArrow=none;html=1;rounded=0;entryX=1;entryY=0.5;entryDx=0;entryDy=0;exitX=0;exitY=0.75;exitDx=0;exitDy=0;" edge="1" parent="1" source="ZD1-CbPlXlFvgOCCGjHF-36" target="ZD1-CbPlXlFvgOCCGjHF-48">
          <mxGeometry width="50" height="50" relative="1" as="geometry">
            <mxPoint x="360" y="510" as="sourcePoint" />
            <mxPoint x="330" y="510" as="targetPoint" />
            <Array as="points" />
          </mxGeometry>
        </mxCell>
        <mxCell id="ZD1-CbPlXlFvgOCCGjHF-48" value="" style="ellipse;whiteSpace=wrap;html=1;aspect=fixed;rounded=0;fillColor=#000000;" vertex="1" parent="1">
          <mxGeometry x="337.5" y="507.5" width="5" height="5" as="geometry" />
        </mxCell>
        <mxCell id="ZD1-CbPlXlFvgOCCGjHF-50" value="" style="endArrow=none;html=1;rounded=0;entryX=0.5;entryY=1;entryDx=0;entryDy=0;exitX=0.5;exitY=0;exitDx=0;exitDy=0;" edge="1" parent="1" source="ZD1-CbPlXlFvgOCCGjHF-45" target="ZD1-CbPlXlFvgOCCGjHF-44">
          <mxGeometry width="50" height="50" relative="1" as="geometry">
            <mxPoint x="300" y="520" as="sourcePoint" />
            <mxPoint x="350" y="470" as="targetPoint" />
          </mxGeometry>
        </mxCell>
        <mxCell id="ZD1-CbPlXlFvgOCCGjHF-51" value="" style="endArrow=none;html=1;rounded=0;entryX=0.5;entryY=1;entryDx=0;entryDy=0;exitX=0.5;exitY=0;exitDx=0;exitDy=0;" edge="1" parent="1" source="ZD1-CbPlXlFvgOCCGjHF-48" target="ZD1-CbPlXlFvgOCCGjHF-45">
          <mxGeometry width="50" height="50" relative="1" as="geometry">
            <mxPoint x="300" y="550" as="sourcePoint" />
            <mxPoint x="350" y="500" as="targetPoint" />
          </mxGeometry>
        </mxCell>
        <mxCell id="ZD1-CbPlXlFvgOCCGjHF-52" value="" style="ellipse;whiteSpace=wrap;html=1;aspect=fixed;rounded=0;fillColor=#000000;" vertex="1" parent="1">
          <mxGeometry x="465" y="299.5" width="5" height="5" as="geometry" />
        </mxCell>
        <mxCell id="ZD1-CbPlXlFvgOCCGjHF-54" value="" style="ellipse;whiteSpace=wrap;html=1;aspect=fixed;rounded=0;" vertex="1" parent="1">
          <mxGeometry x="710" y="360" width="10" height="10" as="geometry" />
        </mxCell>
        <mxCell id="ZD1-CbPlXlFvgOCCGjHF-55" value="" style="endArrow=none;html=1;rounded=0;entryX=0.5;entryY=0;entryDx=0;entryDy=0;exitX=0.5;exitY=1;exitDx=0;exitDy=0;" edge="1" parent="1" target="ZD1-CbPlXlFvgOCCGjHF-54" source="ZD1-CbPlXlFvgOCCGjHF-53">
          <mxGeometry width="50" height="50" relative="1" as="geometry">
            <mxPoint x="715" y="359.99999999999994" as="sourcePoint" />
            <mxPoint x="760" y="367" as="targetPoint" />
            <Array as="points" />
          </mxGeometry>
        </mxCell>
        <mxCell id="ZD1-CbPlXlFvgOCCGjHF-56" value="number" style="text;html=1;strokeColor=none;fillColor=none;align=center;verticalAlign=middle;whiteSpace=wrap;rounded=0;" vertex="1" parent="1">
          <mxGeometry x="730" y="365" width="40" height="10" as="geometry" />
        </mxCell>
        <mxCell id="ZD1-CbPlXlFvgOCCGjHF-58" value="" style="endArrow=none;html=1;rounded=0;entryX=0.5;entryY=0;entryDx=0;entryDy=0;exitX=0.5;exitY=1;exitDx=0;exitDy=0;" edge="1" parent="1" source="ZD1-CbPlXlFvgOCCGjHF-5" target="ZD1-CbPlXlFvgOCCGjHF-53">
          <mxGeometry width="50" height="50" relative="1" as="geometry">
            <mxPoint x="715" y="322" as="sourcePoint" />
            <mxPoint x="715" y="350" as="targetPoint" />
            <Array as="points" />
          </mxGeometry>
        </mxCell>
        <mxCell id="ZD1-CbPlXlFvgOCCGjHF-53" value="" style="ellipse;whiteSpace=wrap;html=1;aspect=fixed;rounded=0;fillColor=#000000;" vertex="1" parent="1">
          <mxGeometry x="712.5" y="350" width="5" height="5" as="geometry" />
        </mxCell>
        <mxCell id="ZD1-CbPlXlFvgOCCGjHF-59" value="" style="endArrow=none;html=1;rounded=0;entryX=0.5;entryY=1;entryDx=0;entryDy=0;exitX=0;exitY=0.5;exitDx=0;exitDy=0;" edge="1" parent="1" source="ZD1-CbPlXlFvgOCCGjHF-53" target="ZD1-CbPlXlFvgOCCGjHF-52">
          <mxGeometry width="50" height="50" relative="1" as="geometry">
            <mxPoint x="520" y="420" as="sourcePoint" />
            <mxPoint x="570" y="370" as="targetPoint" />
            <Array as="points">
              <mxPoint x="509" y="353" />
            </Array>
          </mxGeometry>
        </mxCell>
        <mxCell id="ZD1-CbPlXlFvgOCCGjHF-61" value="" style="ellipse;whiteSpace=wrap;html=1;aspect=fixed;rounded=0;fillColor=#000000;" vertex="1" parent="1">
          <mxGeometry x="747.5" y="347.75" width="10" height="10" as="geometry" />
        </mxCell>
        <mxCell id="ZD1-CbPlXlFvgOCCGjHF-63" value="" style="endArrow=none;html=1;rounded=0;entryX=0;entryY=0.5;entryDx=0;entryDy=0;exitX=1;exitY=0.5;exitDx=0;exitDy=0;" edge="1" parent="1" target="ZD1-CbPlXlFvgOCCGjHF-61" source="ZD1-CbPlXlFvgOCCGjHF-53">
          <mxGeometry width="50" height="50" relative="1" as="geometry">
            <mxPoint x="717.5" y="353.25" as="sourcePoint" />
            <mxPoint x="757.5" y="342.25" as="targetPoint" />
          </mxGeometry>
        </mxCell>
        <mxCell id="ZD1-CbPlXlFvgOCCGjHF-64" value="is in charge of" style="shape=rhombus;perimeter=rhombusPerimeter;whiteSpace=wrap;html=1;align=center;fillColor=none;gradientColor=none;rounded=0;" vertex="1" parent="1">
          <mxGeometry x="655" y="165" width="120" height="65" as="geometry" />
        </mxCell>
        <mxCell id="ZD1-CbPlXlFvgOCCGjHF-65" value="" style="endArrow=none;html=1;rounded=0;entryX=0;entryY=0.5;entryDx=0;entryDy=0;exitX=0;exitY=0.25;exitDx=0;exitDy=0;" edge="1" parent="1" source="ZD1-CbPlXlFvgOCCGjHF-5" target="ZD1-CbPlXlFvgOCCGjHF-64">
          <mxGeometry width="50" height="50" relative="1" as="geometry">
            <mxPoint x="595" y="290" as="sourcePoint" />
            <mxPoint x="645" y="240" as="targetPoint" />
            <Array as="points">
              <mxPoint x="630" y="293" />
              <mxPoint x="630" y="198" />
            </Array>
          </mxGeometry>
        </mxCell>
        <mxCell id="ZD1-CbPlXlFvgOCCGjHF-66" value="" style="endArrow=none;html=1;rounded=0;entryX=1;entryY=0.5;entryDx=0;entryDy=0;exitX=1;exitY=0.25;exitDx=0;exitDy=0;" edge="1" parent="1" source="ZD1-CbPlXlFvgOCCGjHF-5" target="ZD1-CbPlXlFvgOCCGjHF-64">
          <mxGeometry width="50" height="50" relative="1" as="geometry">
            <mxPoint x="675" y="298" as="sourcePoint" />
            <mxPoint x="660" y="203" as="targetPoint" />
            <Array as="points">
              <mxPoint x="815" y="293" />
              <mxPoint x="815" y="198" />
            </Array>
          </mxGeometry>
        </mxCell>
        <mxCell id="ZD1-CbPlXlFvgOCCGjHF-67" value="(1,n)" style="text;html=1;align=center;verticalAlign=middle;resizable=0;points=[];autosize=1;strokeColor=none;fillColor=none;rounded=0;" vertex="1" parent="1">
          <mxGeometry x="622.5" y="267.5" width="45" height="30" as="geometry" />
        </mxCell>
        <mxCell id="ZD1-CbPlXlFvgOCCGjHF-68" value="(1,1)" style="text;html=1;align=center;verticalAlign=middle;resizable=0;points=[];autosize=1;strokeColor=none;fillColor=none;rounded=0;" vertex="1" parent="1">
          <mxGeometry x="775" y="267.5" width="45" height="30" as="geometry" />
        </mxCell>
        <mxCell id="ZD1-CbPlXlFvgOCCGjHF-70" value="(1,n)" style="text;html=1;align=center;verticalAlign=middle;resizable=0;points=[];autosize=1;strokeColor=none;fillColor=none;rounded=0;" vertex="1" parent="1">
          <mxGeometry x="450" y="274.5" width="45" height="30" as="geometry" />
        </mxCell>
        <mxCell id="ZD1-CbPlXlFvgOCCGjHF-72" value="(1,1)" style="text;html=1;align=center;verticalAlign=middle;resizable=0;points=[];autosize=1;strokeColor=none;fillColor=none;rounded=0;" vertex="1" parent="1">
          <mxGeometry x="400" y="327.25" width="45" height="30" as="geometry" />
        </mxCell>
        <mxCell id="ZD1-CbPlXlFvgOCCGjHF-73" value="(1,n)" style="text;html=1;align=center;verticalAlign=middle;resizable=0;points=[];autosize=1;strokeColor=none;fillColor=none;rounded=0;" vertex="1" parent="1">
          <mxGeometry x="400" y="440" width="45" height="30" as="geometry" />
        </mxCell>
        <mxCell id="ZD1-CbPlXlFvgOCCGjHF-74" value="number" style="text;html=1;strokeColor=none;fillColor=none;align=center;verticalAlign=middle;whiteSpace=wrap;rounded=0;" vertex="1" parent="1">
          <mxGeometry x="330" y="240" width="40" height="10" as="geometry" />
        </mxCell>
        <mxCell id="ZD1-CbPlXlFvgOCCGjHF-75" value="name" style="text;html=1;strokeColor=none;fillColor=none;align=center;verticalAlign=middle;whiteSpace=wrap;rounded=0;" vertex="1" parent="1">
          <mxGeometry x="435" y="240" width="40" height="10" as="geometry" />
        </mxCell>
        <mxCell id="ZD1-CbPlXlFvgOCCGjHF-76" style="edgeStyle=orthogonalEdgeStyle;rounded=0;orthogonalLoop=1;jettySize=auto;html=1;exitX=0.75;exitY=0;exitDx=0;exitDy=0;entryX=0.682;entryY=0.261;entryDx=0;entryDy=0;entryPerimeter=0;" edge="1" parent="1" source="ZD1-CbPlXlFvgOCCGjHF-75" target="ZD1-CbPlXlFvgOCCGjHF-75">
          <mxGeometry relative="1" as="geometry" />
        </mxCell>
      </root>
    </mxGraphModel>
  </diagram>
</mxfile>
